<svg width="616" height="562" viewBox="0 0 616 562" fill="none" xmlns="http://www.w3.org/2000/svg">
<g clip-path="url(#clip0_1059_2002)">
<path d="M134.968 214.438C114.192 189.585 76.166 183.587 57.2702 196.208C38.3744 208.829 34.0338 243.125 54.8103 267.978C74.0414 290.982 108.883 297.256 128.074 288.637C128.012 288.906 128.009 289.184 128.063 289.454L129.145 294.235C129.228 294.6 129.413 294.939 129.683 295.222C129.954 295.504 130.301 295.72 130.691 295.849C131.081 295.978 131.502 296.015 131.913 295.958C132.324 295.901 132.712 295.751 133.04 295.522L142.202 289.124C142.53 288.895 142.787 288.595 142.948 288.252C143.11 287.91 143.171 287.536 143.125 287.166C143.08 286.796 142.929 286.443 142.688 286.14C142.447 285.837 142.124 285.594 141.748 285.434L136.819 283.339C136.646 283.27 136.464 283.219 136.277 283.187C151.069 269.208 154.241 237.492 134.968 214.438Z" fill="#CCCCCC"/>
<path d="M89.5222 205.054C99.6854 206.497 108.841 211.372 115.099 218.674C121.357 225.976 124.239 235.147 123.152 244.294C122.928 246.389 126.591 246.376 126.813 244.294C127.86 234.435 124.699 224.587 117.964 216.724C111.229 208.861 101.416 203.565 90.4955 201.898C88.191 201.548 87.2008 204.701 89.5222 205.054Z" fill="white"/>
<path d="M612.341 245.554C623.52 216.183 607.548 184.759 585.217 177.968C562.885 171.176 528.787 187.373 517.608 216.744C507.26 243.931 521.177 273.164 539.982 282.436C539.699 282.543 539.441 282.697 539.222 282.89L535.423 286.392C535.133 286.659 534.925 286.987 534.817 287.347C534.709 287.706 534.706 288.084 534.808 288.444C534.91 288.805 535.113 289.136 535.398 289.407C535.684 289.677 536.042 289.878 536.438 289.99L547.523 293.126C547.92 293.238 548.342 293.258 548.749 293.183C549.157 293.109 549.536 292.942 549.852 292.7C550.167 292.457 550.408 292.146 550.551 291.797C550.694 291.448 550.735 291.072 550.67 290.705L549.816 285.887C549.782 285.719 549.726 285.556 549.65 285.401C570.913 288.4 601.97 272.8 612.341 245.554Z" fill="#CCCCCC"/>
<path d="M595.295 206.745C599.712 215.053 600.391 224.559 597.193 233.302C593.995 242.045 587.164 249.357 578.11 253.728C576.051 254.749 578.135 257.441 580.181 256.427C589.869 251.624 597.168 243.724 600.613 234.312C604.058 224.899 603.395 214.671 598.757 205.678C597.777 203.781 594.308 204.834 595.295 206.745Z" fill="white"/>
<path d="M349.7 54.19C348.181 23.195 320.531 -0.897058 296.965 0.0256409C273.399 0.948339 248.211 27.1091 249.73 58.1041C251.136 86.7938 275.981 109.512 297.27 112.046C297.049 112.237 296.871 112.464 296.746 112.715L294.629 117.211C294.468 117.554 294.407 117.928 294.453 118.297C294.499 118.667 294.649 119.02 294.891 119.323C295.132 119.626 295.456 119.869 295.832 120.028C296.207 120.188 296.623 120.259 297.038 120.234L308.64 119.557C309.055 119.533 309.456 119.414 309.806 119.212C310.155 119.01 310.441 118.732 310.636 118.404C310.831 118.075 310.929 117.708 310.921 117.336C310.912 116.964 310.798 116.6 310.588 116.279L307.834 112.068C307.735 111.923 307.616 111.789 307.482 111.669C328.512 107.559 351.109 82.9421 349.7 54.19Z" fill="#F9A826"/>
<path d="M318.049 23.566C325.54 29.8728 330.036 38.5096 330.609 47.6936C331.182 56.8776 327.789 65.9078 321.129 72.9201C319.625 74.5394 322.66 76.371 324.155 74.7623C331.23 67.1415 334.82 57.4115 334.205 47.5236C333.591 37.6358 328.817 28.3212 320.841 21.4478C319.157 19.9989 316.353 22.1063 318.049 23.566Z" fill="white"/>
<path d="M351.605 323.655C379.071 323.655 401.336 303.753 401.336 279.203C401.336 254.652 379.071 234.75 351.605 234.75C324.139 234.75 301.874 254.652 301.874 279.203C301.874 303.753 324.139 323.655 351.605 323.655Z" fill="#F9A826"/>
<path d="M349.344 561.06H335.629C334.028 561.058 332.493 560.489 331.36 559.477C330.228 558.464 329.591 557.092 329.589 555.661V453.487C329.591 452.055 330.228 450.683 331.36 449.671C332.493 448.659 334.028 448.09 335.629 448.088H349.344C350.945 448.09 352.481 448.659 353.613 449.671C354.745 450.683 355.382 452.055 355.384 453.487V555.661C355.382 557.092 354.745 558.464 353.613 559.477C352.481 560.489 350.945 561.058 349.344 561.06Z" fill="#F9A826"/>
<path d="M393.275 561.06H379.56C377.959 561.058 376.424 560.489 375.292 559.477C374.159 558.464 373.522 557.092 373.521 555.661V453.487C373.522 452.055 374.159 450.683 375.292 449.671C376.424 448.659 377.959 448.09 379.56 448.088H393.275C394.876 448.09 396.412 448.659 397.544 449.671C398.676 450.683 399.313 452.055 399.315 453.487V555.661C399.313 557.092 398.676 558.464 397.544 559.477C396.412 560.489 394.876 561.058 393.275 561.06Z" fill="#F9A826"/>
<path d="M315.055 365.609L309.171 376.683C308.483 377.975 307.249 378.971 305.74 379.451C304.232 379.931 302.572 379.857 301.124 379.244L197.869 335.414C196.423 334.798 195.31 333.695 194.773 332.347C194.236 330.998 194.319 329.515 195.004 328.221L200.887 317.147C201.576 315.855 202.81 314.86 204.318 314.38C205.827 313.899 207.487 313.974 208.934 314.586L312.19 358.417C313.635 359.032 314.749 360.135 315.286 361.484C315.823 362.832 315.74 364.316 315.055 365.609Z" fill="#F9A826"/>
<path d="M330.61 371.546C330.902 372.804 330.678 374.113 329.98 375.236L323.351 385.968C322.576 387.22 321.276 388.146 319.737 388.543C318.199 388.94 316.547 388.775 315.144 388.085L266.622 368.965C265.221 368.272 264.185 367.11 263.741 365.735C263.297 364.36 263.482 362.883 264.254 361.63L276.413 341.297C276.796 340.676 277.313 340.129 277.933 339.687C278.553 339.245 279.264 338.916 280.026 338.719C280.788 338.523 281.586 338.462 282.374 338.542C283.162 338.621 283.925 338.838 284.62 339.181L328.199 364.93C329.611 365.627 330.048 369.744 330.496 371.129C330.541 371.268 330.578 371.407 330.61 371.546Z" fill="#2F2E41"/>
<path d="M390.268 358.417L493.524 314.586C494.971 313.974 496.631 313.899 498.14 314.38C499.648 314.86 500.882 315.855 501.571 317.147L507.454 328.221C508.139 329.515 508.223 330.998 507.685 332.347C507.148 333.695 506.035 334.798 504.589 335.414L401.334 379.244C399.886 379.857 398.226 379.931 396.718 379.451C395.209 378.971 393.975 377.975 393.287 376.683L387.403 365.609C386.718 364.316 386.635 362.832 387.172 361.484C387.709 360.135 388.823 359.032 390.268 358.417Z" fill="#F9A826"/>
<path d="M371.962 371.129C372.41 369.744 372.847 365.627 374.259 364.93L417.838 339.181C418.532 338.838 419.295 338.621 420.083 338.542C420.872 338.462 421.67 338.523 422.432 338.719C423.194 338.916 423.905 339.245 424.525 339.687C425.145 340.129 425.661 340.676 426.044 341.297L438.203 361.629C438.976 362.883 439.161 364.36 438.717 365.735C438.273 367.11 437.237 368.272 435.836 368.965L387.314 388.085C385.911 388.775 384.259 388.94 382.72 388.543C381.182 388.146 379.882 387.22 379.106 385.968L372.478 375.236C371.78 374.113 371.556 372.804 371.847 371.546C371.879 371.407 371.917 371.268 371.962 371.129Z" fill="#2F2E41"/>
<path d="M344.984 295.679L344.933 294.018C348.39 293.932 351.438 293.738 353.728 292.243C354.378 291.795 354.912 291.227 355.293 290.578C355.675 289.929 355.896 289.214 355.941 288.481C355.982 288.034 355.906 287.584 355.72 287.168C355.534 286.751 355.243 286.377 354.87 286.077C353.35 284.93 350.903 285.301 349.12 286.032L347.582 286.662L350.531 267.4L352.372 267.626L349.864 284.011C350.891 283.67 351.997 283.565 353.081 283.704C354.164 283.844 355.192 284.223 356.07 284.809C356.66 285.269 357.123 285.846 357.423 286.493C357.723 287.14 357.852 287.841 357.798 288.54C357.744 289.524 357.45 290.485 356.936 291.356C356.423 292.228 355.702 292.988 354.825 293.584C351.882 295.507 348.057 295.602 344.984 295.679Z" fill="#2F2E41"/>
<path d="M371.488 269.037H361.479V270.698H371.488V269.037Z" fill="#2F2E41"/>
<path d="M339.894 269.037H329.885V270.698H339.894V269.037Z" fill="#2F2E41"/>
<path d="M368.749 344.431H370.754C371.556 344.432 372.35 344.292 373.091 344.018C373.833 343.744 374.506 343.343 375.074 342.836C375.641 342.33 376.091 341.728 376.398 341.066C376.705 340.404 376.863 339.694 376.863 338.977C376.863 338.261 376.705 337.551 376.398 336.889C376.091 336.226 375.641 335.625 375.074 335.118C374.506 334.612 373.833 334.21 373.091 333.937C372.35 333.663 371.556 333.523 370.754 333.523H331.704C330.087 333.525 328.537 334.101 327.395 335.123C326.252 336.146 325.61 337.532 325.61 338.977C325.61 340.423 326.252 341.809 327.395 342.831C328.537 343.854 330.087 344.429 331.704 344.431H335.372C304.033 357.176 283.924 404.254 283.924 433.592C283.924 467.769 311.519 478.794 352.062 478.794C392.604 478.794 430.741 467.769 430.741 433.592C430.741 404.254 402.415 357.176 368.749 344.431Z" fill="#2F2E41"/>
<path d="M349.557 253.816C348.345 250.525 343.973 249.514 340.609 250.756C336.664 252.212 334.427 255.819 330.617 257.524C323.763 260.591 314.672 258.944 309.447 254.028C303.733 248.653 302.608 240.264 305.483 233.477C308.457 226.458 315.834 221.377 323.732 219.314C334.228 216.572 345.489 219.088 354.58 224.146C354.822 224.269 355.094 224.342 355.372 224.358C355.651 224.375 355.931 224.334 356.19 224.24C356.448 224.146 356.68 224 356.867 223.815C357.054 223.629 357.191 223.408 357.269 223.168C359.768 214.631 370.552 212.146 379.217 213.062C387.77 214.114 395.906 217.017 402.92 221.517C416.466 229.964 426.016 243.725 427.354 258.538C427.997 266.158 426.768 273.811 423.755 280.962C420.742 288.112 416.017 294.588 409.911 299.935C406.857 302.569 403.298 304.641 400.185 307.208C397.349 309.546 394.554 312.622 394.61 316.262C394.74 324.631 407.061 326.939 414.352 327.19C423.403 327.551 432.292 324.954 439.356 319.883C446.42 314.813 451.176 307.616 452.735 299.638C453.124 297.696 453.325 295.728 453.337 293.755C453.348 291.649 449.687 291.646 449.676 293.755C449.608 301.708 446.107 309.33 439.903 315.032C436.715 317.891 432.919 320.152 428.74 321.682C424.56 323.212 420.081 323.98 415.564 323.942C409.744 323.916 393.973 321.449 399.259 313.219C401.325 310.001 405.034 307.81 408.23 305.57C411.555 303.234 414.575 300.57 417.231 297.628C422.58 291.724 426.523 284.905 428.817 277.59C431.111 270.274 431.709 262.617 430.572 255.088C428.213 240.332 418.203 226.999 404.587 218.578C391.622 210.562 367.66 203.471 356.328 217.361C355.128 218.848 354.249 220.522 353.738 222.298L356.427 221.32C347.669 216.447 337.228 213.92 326.935 215.33C322.504 215.926 318.256 217.325 314.451 219.44C310.646 221.554 307.363 224.341 304.804 227.628C302.351 230.935 300.849 234.732 300.432 238.682C300.015 242.632 300.697 246.613 302.415 250.271C304.099 253.775 306.874 256.773 310.41 258.907C313.946 261.041 318.094 262.222 322.36 262.308C326.979 262.474 331.524 261.231 335.248 258.783C337.334 257.361 338.935 255.349 341.192 254.139C342.485 253.445 345.391 252.959 346.026 254.686C346.76 256.677 350.296 255.824 349.557 253.816Z" fill="#2F2E41"/>
<path d="M432.534 92.2748C441.617 92.7863 450.436 95.2147 458.267 99.361C466.098 103.507 472.718 109.253 477.585 116.128C478.949 118.077 480.73 120.219 479.785 122.618C479.457 123.538 478.788 124.331 477.89 124.867C476.991 125.403 475.916 125.651 474.84 125.571C472.056 125.268 470.259 122.833 469.916 120.501C469.527 117.855 471.616 115.778 474.194 114.795C480.494 112.393 486.85 116.105 491.982 119.068C503.675 125.819 516.537 131.924 530.706 132.694C543.816 133.406 557.874 128.811 565.166 118.649C566.441 116.871 563.274 115.228 562.005 116.997C554.773 127.075 540.153 130.695 527.442 129.137C519.867 128.069 512.553 125.849 505.816 122.574C502.322 120.954 498.933 119.157 495.613 117.268C492.454 115.298 489.105 113.582 485.606 112.141C479.771 109.998 472.047 110.166 467.971 115.098C464.169 119.7 467.108 127.362 473.467 128.656C479.494 129.882 484.775 124.815 483.534 119.517C482.9 116.807 480.617 114.155 478.849 111.94C473.54 105.264 466.623 99.7374 458.607 95.7677C450.591 91.7979 441.681 89.4861 432.533 89.0024C430.179 88.8983 430.185 92.1709 432.534 92.2748Z" fill="#CCCCCC"/>
<path d="M132.929 143.67C123.846 143.159 115.027 140.73 107.196 136.584C99.3647 132.438 92.7444 126.692 87.8776 119.817C86.5137 117.868 84.7332 115.726 85.6774 113.327C86.0063 112.407 86.6746 111.614 87.573 111.078C88.4714 110.542 89.5467 110.294 90.6233 110.374C93.4071 110.677 95.2035 113.111 95.5465 115.444C95.9355 118.09 93.8473 120.167 91.2691 121.15C84.969 123.552 78.6127 119.84 73.4809 116.877C61.7875 110.126 48.9259 104.021 34.7568 103.251C21.6471 102.539 7.58894 107.134 0.297142 117.296C-0.978584 119.074 2.1889 120.717 3.4583 118.948C10.69 108.869 25.3093 105.25 38.0207 106.808C45.5958 107.876 52.9103 110.096 59.6473 113.371C63.1411 114.991 66.5297 116.788 69.8497 118.677C73.009 120.647 76.3577 122.363 79.8564 123.804C85.6914 125.947 93.4157 125.779 97.4915 120.847C101.294 116.245 98.3553 108.583 91.9956 107.289C85.9685 106.063 80.6883 111.13 81.9288 116.428C82.5633 119.138 84.8463 121.79 86.6134 124.005C91.9228 130.681 98.8401 136.208 106.856 140.177C114.872 144.147 123.782 146.459 132.93 146.942C135.284 147.047 135.278 143.774 132.929 143.67Z" fill="#CCCCCC"/>
<path d="M555.115 562H174.274C174.009 562 173.755 561.906 173.567 561.738C173.38 561.571 173.274 561.343 173.274 561.106C173.274 560.869 173.38 560.642 173.567 560.475C173.755 560.307 174.009 560.213 174.274 560.213H555.115C555.38 560.213 555.634 560.307 555.822 560.475C556.009 560.642 556.114 560.869 556.114 561.106C556.114 561.343 556.009 561.571 555.822 561.738C555.634 561.906 555.38 562 555.115 562Z" fill="#3F3D56"/>
</g>
<defs>
<clipPath id="clip0_1059_2002">
<rect width="616" height="562" fill="white"/>
</clipPath>
</defs>
</svg>
