<svg width="18" height="18" viewBox="0 0 18 18" fill="none" xmlns="http://www.w3.org/2000/svg" class="text-red-300">
<path d="M3.75 3.75H5.25V4.5C5.25 5.325 5.925 6 6.75 6H11.25C12.075 6 12.75 5.325 12.75 4.5V3.75H14.25V7.5H15.75V3.75C15.75 2.925 15.075 2.25 14.25 2.25H11.115C10.8 1.38 9.975 0.75 9 0.75C8.025 0.75 7.2 1.38 6.885 2.25H3.75C2.925 2.25 2.25 2.925 2.25 3.75V14.25C2.25 15.075 2.925 15.75 3.75 15.75H8.25V14.25H3.75V3.75ZM9 2.25C9.4125 2.25 9.75 2.5875 9.75 3C9.75 3.4125 9.4125 3.75 9 3.75C8.5875 3.75 8.25 3.4125 8.25 3C8.25 2.5875 8.5875 2.25 9 2.25Z" fill="#4F4F4F"/>
<path d="M16.3127 9.18766C16.0052 8.88016 15.4952 8.88016 15.1877 9.18766L11.6327 12.7502L9.93766 11.0627C9.63016 10.7552 9.12766 10.7552 8.81266 11.0627C8.50516 11.3702 8.50516 11.8802 8.81266 12.1877L11.1002 14.4677C11.3927 14.7602 11.8652 14.7602 12.1577 14.4677L16.3052 10.3127C16.6202 10.0052 16.6202 9.49516 16.3127 9.18766Z" fill="#4F4F4F"/>
</svg>
