<svg width="12" height="14" viewBox="0 0 12 14" fill="none" xmlns="http://www.w3.org/2000/svg">
<path d="M12 10.75V3.25C12 1.624 9.25275 0.25 6 0.25C2.74725 0.25 0 1.624 0 3.25V10.75C0 12.376 2.74725 13.75 6 13.75C9.25275 13.75 12 12.376 12 10.75ZM6 1.75C8.76825 1.75 10.4482 2.88025 10.5 3.2455C10.4482 3.61975 8.76825 4.75 6 4.75C3.23175 4.75 1.55175 3.61975 1.5 3.2545C1.55175 2.88025 3.23175 1.75 6 1.75ZM1.5 5.20525C2.60925 5.8405 4.22775 6.25 6 6.25C7.77225 6.25 9.39075 5.8405 10.5 5.20525V6.9955C10.4482 7.36975 8.76825 8.5 6 8.5C3.23175 8.5 1.55175 7.36975 1.5 7V5.20525ZM1.5 10.75V8.95525C2.60925 9.5905 4.22775 10 6 10C7.77225 10 9.39075 9.5905 10.5 8.95525V10.7455C10.4482 11.1198 8.76825 12.25 6 12.25C3.23175 12.25 1.55175 11.1198 1.5 10.75Z" fill="black"/>
</svg>
