<svg width="24" height="24" viewBox="0 0 24 24" fill="none" xmlns="http://www.w3.org/2000/svg">
<path d="M7.28585 12.0004C7.75924 12.0004 8.143 11.6167 8.143 11.1433C8.143 10.6699 7.75924 10.2861 7.28585 10.2861C6.81247 10.2861 6.42871 10.6699 6.42871 11.1433C6.42871 11.6167 6.81247 12.0004 7.28585 12.0004Z" stroke="black" stroke-linecap="round" stroke-linejoin="round"/>
<path d="M12.8571 12.0004C13.3305 12.0004 13.7143 11.6167 13.7143 11.1433C13.7143 10.6699 13.3305 10.2861 12.8571 10.2861C12.3838 10.2861 12 10.6699 12 11.1433C12 11.6167 12.3838 12.0004 12.8571 12.0004Z" stroke="black" stroke-linecap="round" stroke-linejoin="round"/>
<path d="M18.4284 12.0004C18.9018 12.0004 19.2856 11.6167 19.2856 11.1433C19.2856 10.6699 18.9018 10.2861 18.4284 10.2861C17.955 10.2861 17.5713 10.6699 17.5713 11.1433C17.5713 11.6167 17.955 12.0004 18.4284 12.0004Z" stroke="black" stroke-linecap="round" stroke-linejoin="round"/>
<path d="M7.71456 21.4288L0.857422 23.1431L2.57171 18.0003V2.57171C2.57171 2.11705 2.75232 1.68102 3.07381 1.35952C3.3953 1.03803 3.83134 0.857422 4.28599 0.857422H21.4288C21.8835 0.857422 22.3195 1.03803 22.641 1.35952C22.9625 1.68102 23.1431 2.11705 23.1431 2.57171V19.7146C23.1431 20.1692 22.9625 20.6053 22.641 20.9267C22.3195 21.2482 21.8835 21.4288 21.4288 21.4288H7.71456Z" stroke="black" stroke-linecap="round" stroke-linejoin="round"/>
</svg>
