<svg width="20" height="20" viewBox="0 0 20 20" fill="none" xmlns="http://www.w3.org/2000/svg">
<path d="M18.25 5.75033H14.9613C14.9978 5.7194 15.0353 5.6894 15.0709 5.65658C15.3557 5.40362 15.5851 5.09464 15.745 4.74894C15.9049 4.40325 15.9917 4.02829 16 3.64752C16.0123 3.23096 15.9394 2.81629 15.7856 2.42895C15.6319 2.0416 15.4006 1.68977 15.106 1.39505C14.8113 1.10033 14.4596 0.868935 14.0723 0.715076C13.685 0.561218 13.2703 0.488141 12.8538 0.500332C12.4728 0.508537 12.0977 0.595287 11.7518 0.755151C11.406 0.915016 11.0968 1.14455 10.8438 1.42939C10.4936 1.83523 10.2089 2.29325 10 2.7869C9.7911 2.29325 9.50642 1.83523 9.15625 1.42939C8.90318 1.14455 8.59405 0.915016 8.24818 0.755151C7.90232 0.595287 7.52718 0.508537 7.14625 0.500332C6.72969 0.488141 6.31503 0.561218 5.92774 0.715076C5.54044 0.868935 5.18868 1.10033 4.89405 1.39505C4.59941 1.68977 4.36812 2.0416 4.21438 2.42895C4.06064 2.81629 3.98768 3.23096 4 3.64752C4.00833 4.02829 4.09514 4.40325 4.255 4.74894C4.41486 5.09464 4.64434 5.40362 4.92906 5.65658C4.96469 5.68752 5.00219 5.71752 5.03875 5.75033H1.75C1.35218 5.75033 0.970644 5.90837 0.68934 6.18967C0.408035 6.47098 0.25 6.85251 0.25 7.25033V10.2503C0.25 10.6482 0.408035 11.0297 0.68934 11.311C0.970644 11.5923 1.35218 11.7503 1.75 11.7503V17.7503C1.75 18.1482 1.90804 18.5297 2.18934 18.811C2.47064 19.0923 2.85218 19.2503 3.25 19.2503H16.75C17.1478 19.2503 17.5294 19.0923 17.8107 18.811C18.092 18.5297 18.25 18.1482 18.25 17.7503V11.7503C18.6478 11.7503 19.0294 11.5923 19.3107 11.311C19.592 11.0297 19.75 10.6482 19.75 10.2503V7.25033C19.75 6.85251 19.592 6.47098 19.3107 6.18967C19.0294 5.90837 18.6478 5.75033 18.25 5.75033ZM11.9688 2.42314C12.0875 2.29201 12.2321 2.18684 12.3934 2.11424C12.5547 2.04164 12.7293 2.00318 12.9062 2.00127H12.9522C13.1595 2.00257 13.3645 2.04523 13.5552 2.12677C13.7458 2.20831 13.9183 2.32709 14.0624 2.47613C14.2066 2.62517 14.3195 2.80149 14.3947 2.99474C14.4698 3.188 14.5056 3.39431 14.5 3.60158C14.4981 3.77849 14.4596 3.95309 14.387 4.11442C14.3144 4.27575 14.2093 4.42033 14.0781 4.53908C13.1884 5.32658 11.7119 5.60408 10.7969 5.70158C10.9094 4.70877 11.2188 3.26596 11.9688 2.42314ZM5.96031 2.45689C6.25088 2.16635 6.64441 2.00227 7.05531 2.00033H7.10125C7.27815 2.00224 7.45275 2.0407 7.61409 2.1133C7.77542 2.1859 7.92 2.29107 8.03875 2.42221C8.82531 3.31096 9.10281 4.78471 9.20031 5.69596C8.28906 5.60221 6.81531 5.32096 5.92656 4.5344C5.79543 4.41564 5.69026 4.27106 5.61766 4.10973C5.54506 3.9484 5.5066 3.7738 5.50469 3.59689C5.49887 3.38618 5.53593 3.17648 5.61361 2.98051C5.69128 2.78455 5.80796 2.60641 5.95656 2.45689H5.96031ZM1.75 7.25033H9.25V10.2503H1.75V7.25033ZM3.25 11.7503H9.25V17.7503H3.25V11.7503ZM16.75 17.7503H10.75V11.7503H16.75V17.7503ZM18.25 10.2503H10.75V7.25033H18.25V10.2503Z" fill="black"/>
</svg>
