<svg width="299" height="316" viewBox="0 0 299 316" fill="none" xmlns="http://www.w3.org/2000/svg">
<ellipse cx="149.5" cy="122.738" rx="149.5" ry="122.738" fill="#FFA534" fill-opacity="0.15"/>
<rect x="0.954104" y="1.02416" width="147.408" height="171.567" rx="7" transform="matrix(1.00665 0.0360836 -0.0525469 0.988079 88.902 118.425)" fill="#FFA534" fill-opacity="0.32" stroke="#FFA534" stroke-width="2"/>
<rect x="-1.15254" y="-0.879926" width="152.127" height="174.367" rx="9" transform="matrix(0.994209 -0.10746 0.158335 0.987385 6.3182 111.517)" fill="#FAFAFA" stroke="#FFA534" stroke-width="2"/>
<path d="M7.45223 119.551C6.75266 115.189 9.74653 111.267 14.1392 110.793L147.489 96.3795C151.882 95.9047 156.01 99.0563 156.71 103.419L161.72 134.664L12.4627 150.797L7.45223 119.551Z" fill="#FFA534" fill-opacity="0.32"/>
<rect width="5.17102" height="20.8509" rx="2.58551" transform="matrix(0.158335 0.987385 -0.994209 0.10746 187.902 100.668)" fill="#FFA534"/>
<rect width="6.25528" height="17.2367" rx="3" transform="matrix(0.994209 -0.10746 0.158335 0.987385 130.62 72.2305)" fill="#FFA534"/>
<rect width="5.73882" height="19.1294" rx="2.86941" transform="matrix(0.867163 0.546285 -0.665397 0.711932 167.371 76.916)" fill="#FFA534"/>
<rect width="120.936" height="6.8947" rx="2" transform="matrix(0.994209 -0.10746 0.158335 0.987385 28.0654 156.035)" fill="#FFA534"/>
<rect width="120.936" height="6.8947" rx="2" transform="matrix(0.994209 -0.10746 0.158335 0.987385 33.5244 190.074)" fill="#FFA534"/>
<rect width="120.936" height="6.8947" rx="2" transform="matrix(0.994209 -0.10746 0.158335 0.987385 38.9824 224.113)" fill="#FFA534"/>
<rect width="43.787" height="6.8947" rx="2" transform="matrix(0.994209 -0.10746 0.158335 0.987385 30.249 169.65)" fill="#FFA534" fill-opacity="0.32"/>
<rect width="43.787" height="6.8947" rx="2" transform="matrix(0.994209 -0.10746 0.158335 0.987385 35.707 203.689)" fill="#FFA534" fill-opacity="0.32"/>
<rect width="43.787" height="6.8947" rx="2" transform="matrix(0.994209 -0.10746 0.158335 0.987385 41.165 237.729)" fill="#FFA534" fill-opacity="0.32"/>
</svg>
